<svg xmlns="http://www.w3.org/2000/svg" xmlns:xlink="http://www.w3.org/1999/xlink" viewBox="0 0 208 208"><defs><clipPath id="a" transform="translate(14 14)"><rect width="180" height="180" rx="45" fill="none"/></clipPath></defs><g clip-path="url(#a)"><rect width="208" height="208" fill="#faf3ea"/></g><path d="M51.71,94.67a5.08,5.08,0,0,0-1.8.49,8.8,8.8,0,0,0-2.29,1.48,7.76,7.76,0,0,0-1.89,2.45,8,8,0,0,0-.73,3.6,8.15,8.15,0,0,0,.73,3.52,7.61,7.61,0,0,0,1.89,2.54,9,9,0,0,0,2.29,1.47,4.87,4.87,0,0,0,1.8.49H85.09v25.85H51.71a40.72,40.72,0,0,1-12.77-2,33,33,0,0,1-11.12-6.22A30.26,30.26,0,0,1,20,117.75,35.75,35.75,0,0,1,17,102.69,38,38,0,0,1,20,87.31a33.54,33.54,0,0,1,19-18.25,35.58,35.58,0,0,1,12.77-2.37H124.2c1.2,0,1.8-.76,1.8-2.29V35.6h28V64.89a28.79,28.79,0,0,1-2.37,11.54A29.95,29.95,0,0,1,135.82,92.3a28.61,28.61,0,0,1-11.62,2.37Zm92.78,14.57v20.61H132.38V147H111.76V129.85H98.83V109.24Z" transform="translate(14 14)" fill="#038247"/></svg>